Coordinates
version=1
nRows=16
nColumns=38
inDegrees=no

Units are S.I. units (second, meters, Newtons, ...)
If the header above contains a line with 'inDegrees', this indicates whether rotational values are in degrees (yes) or radians (no).

endheader
time	pelvis_tilt	pelvis_list	pelvis_rotation	pelvis_tx	pelvis_ty	pelvis_tz	hip_flexion_r	hip_adduction_r	hip_rotation_r	knee_angle_r	ankle_angle_r	subtalar_angle_r	mtp_angle_r	hip_flexion_l	hip_adduction_l	hip_rotation_l	knee_angle_l	ankle_angle_l	subtalar_angle_l	mtp_angle_l	lumbar_extension	lumbar_bending	lumbar_rotation	arm_flex_r	arm_add_r	arm_rot_r	elbow_flex_r	pro_sup_r	wrist_flex_r	wrist_dev_r	arm_flex_l	arm_add_l	arm_rot_l	elbow_flex_l	pro_sup_l	wrist_flex_l	wrist_dev_l
1.35	0.0665144	-0.018855	-0.0780839	0.80116	0.968697	-0.372052	0.487322	0.0800824	-0.0789101	-0.709505	0.247236	0.0999988	-0.0422679	-0.0952152	-0.132865	-0.198916	-2.07952	-0.000194886	0.0999999	-0.036774	-0.356345	0.0730022	-0.159064	-0.443835	-0.622257	-0.392384	1.89076	1.29821	0.0656517	0.0997237	-0.494729	-0.44083	0.0833453	1.9776	1.55657	0.0205341	-0.0811922
1.35833	0.0660319	-0.030104	-0.0891156	0.798159	0.964748	-0.370967	0.47423	0.097168	-0.0601941	-0.771154	0.278515	0.0999988	-0.0422679	-0.0323737	-0.153771	-0.199363	-2.16158	0.0356738	0.0999999	-0.036774	-0.364216	0.0837557	-0.122724	-0.396417	-0.613442	-0.384183	1.90253	1.29562	0.0656517	0.0997237	-0.510788	-0.428126	0.0611581	1.92467	1.56708	0.0205341	-0.0811922
1.36667	0.063532	-0.0409364	-0.10051	0.794927	0.961542	-0.369873	0.455712	0.112962	-0.0423099	-0.822028	0.320439	0.0999988	-0.0422679	0.0376844	-0.173359	-0.196509	-2.23145	0.0704718	0.0999999	-0.036774	-0.370161	0.0934426	-0.0844214	-0.347038	-0.602573	-0.373311	1.9158	1.29399	0.0656517	0.0997237	-0.524145	-0.4162	0.0377538	1.87325	1.57897	0.0205341	-0.0811922
1.375	0.0596618	-0.0501021	-0.111885	0.79163	0.959166	-0.368767	0.429761	0.125891	-0.0249649	-0.858097	0.367925	0.0999988	-0.0422679	0.113281	-0.190054	-0.190693	-2.28718	0.103391	0.0999999	-0.036774	-0.374105	0.100614	-0.0451648	-0.296914	-0.589606	-0.359753	1.93094	1.29318	0.0656517	0.0997237	-0.535757	-0.405798	0.0133186	1.82583	1.59061	0.0205341	-0.0811922
1.38333	0.0550866	-0.0564213	-0.12286	0.788459	0.957728	-0.367628	0.395203	0.134463	-0.00784875	-0.877148	0.41616	0.0999988	-0.0422679	0.192327	-0.202478	-0.182743	-2.32723	0.133504	0.0999999	-0.036774	-0.376007	0.103949	-0.00591085	-0.247372	-0.574675	-0.343641	1.94828	1.29306	0.0656517	0.0997237	-0.546615	-0.397734	-0.0119188	1.78499	1.60002	0.0205341	-0.0811922
1.39167	0.0503606	-0.0589669	-0.133122	0.785597	0.957313	-0.366428	0.35181	0.13746	0.00903321	-0.878689	0.461215	0.0999988	-0.0422679	0.272577	-0.209676	-0.173887	-2.35059	0.159935	0.0999999	-0.036774	-0.375822	0.102468	0.0325903	-0.199741	-0.558142	-0.32522	1.96814	1.29361	0.0656517	0.0997237	-0.557579	-0.392778	-0.0376572	1.75298	1.60522	0.0205341	-0.0811922
1.4	0.0458283	-0.0572001	-0.142452	0.783197	0.957943	-0.365151	0.300219	0.134075	0.0251032	-0.863578	0.50008	0.0999988	-0.0422679	0.351885	-0.211258	-0.165538	-2.35693	0.182039	0.0999999	-0.036774	-0.373459	0.0957022	0.0698641	-0.155226	-0.540605	-0.304744	1.99071	1.29504	0.0656517	0.0997237	-0.569279	-0.391541	-0.0635268	1.7314	1.60465	0.0205341	-0.0811922
1.40833	0.0415701	-0.0510221	-0.150714	0.78137	0.959563	-0.363804	0.24174	0.124011	0.0391052	-0.83358	0.530389	0.0999988	-0.0422679	0.428413	-0.207409	-0.159022	-2.34652	0.199525	0.0999999	-0.036774	-0.368748	0.0837574	0.105686	-0.114783	-0.522869	-0.282345	2.016	1.29773	0.0656517	0.0997237	-0.582089	-0.394395	-0.0891362	1.7209	1.59753	0.0205341	-0.0811922
1.41667	0.0374207	-0.0407599	-0.157835	0.780181	0.962058	-0.362417	0.178137	0.107507	0.0491745	-0.79099	0.55009	0.0999988	-0.0422679	0.500743	-0.198806	-0.155344	-2.32018	0.21253	0.0999999	-0.036774	-0.361456	0.0672682	0.139993	-0.079017	-0.505862	-0.257926	2.04383	1.30216	0.0656517	0.0997237	-0.596171	-0.40143	-0.114153	1.72116	1.58402	0.0205341	-0.0811922
1.425	0.0330486	-0.0270888	-0.163782	0.779658	0.965278	-0.361032	0.111407	0.0852971	0.0530705	-0.738409	0.557262	0.0999988	-0.0422679	0.5679	-0.186462	-0.155044	-2.27912	0.221606	0.0999999	-0.036774	-0.351343	0.0472676	0.17278	-0.0481228	-0.490521	-0.231149	2.07384	1.30887	0.0656517	0.0997237	-0.611539	-0.412454	-0.138386	1.73098	1.56516	0.0205341	-0.0811922
1.43333	0.0280711	-0.0109181	-0.168534	0.77979	0.969055	-0.359702	0.0435835	0.0585109	0.0485281	-0.678638	0.550143	0.0999988	-0.0422679	0.629284	-0.171541	-0.158159	-2.22479	0.227648	0.0999999	-0.036774	-0.338266	0.0250172	0.204006	-0.0218918	-0.47769	-0.201511	2.10546	1.31836	0.0656517	0.0997237	-0.628129	-0.427025	-0.161843	1.74854	1.54268	0.0205341	-0.0811922
1.44167	0.0221643	0.00673605	-0.172064	0.780525	0.973219	-0.358485	-0.0234175	0.0285357	0.0336919	-0.614645	0.527346	0.0999988	-0.0422679	0.684559	-0.155167	-0.16429	-2.15871	0.231743	0.0999999	-0.036774	-0.322263	0.00183831	0.233535	0.00021919	-0.468029	-0.168498	2.13808	1.33103	0.0656517	0.0997237	-0.645832	-0.444496	-0.184749	1.77173	1.51865	0.0205341	-0.0811922
1.45	0.0151386	0.024866	-0.17433	0.781775	0.977607	-0.357439	-0.0879204	-0.00312748	0.00757928	-0.549513	0.488145	0.0999988	-0.0422679	0.733535	-0.138292	-0.17274	-2.08231	0.235029	0.0999999	-0.036774	-0.303612	-0.0210235	0.261129	0.0189565	-0.461962	-0.131755	2.17107	1.3471	0.0656517	0.0997237	-0.664501	-0.464076	-0.207505	1.79846	1.49515	0.0205341	-0.0811922
1.45833	0.00696133	0.04255	-0.175288	0.783418	0.982061	-0.35662	-0.14855	-0.0349902	-0.029512	-0.486384	0.43284	0.0999988	-0.0422679	0.776092	-0.121619	-0.182686	-1.99686	0.23858	0.0999999	-0.036774	-0.282821	-0.0424931	0.286487	0.0351035	-0.459661	-0.0912485	2.20387	1.36656	0.0656517	0.0997237	-0.683924	-0.484896	-0.230598	1.82686	1.47384	0.0205341	-0.0811922
1.46667	-0.00227555	0.0589916	-0.174911	0.785321	0.986436	-0.356063	-0.204229	-0.0656696	-0.0757641	-0.428385	0.363135	0.0999988	-0.0422679	0.81214	-0.10562	-0.193349	-1.9034	0.243319	0.0999999	-0.036774	-0.26057	-0.0617109	0.309324	0.0493128	-0.461048	-0.0473621	2.23605	1.38906	0.0656517	0.0997237	-0.703795	-0.506097	-0.254485	1.85543	1.45578	0.0205341	-0.0811922
1.475	-0.0124135	0.0735284	-0.173218	0.787345	0.990593	-0.355781	-0.254122	-0.0939604	-0.127927	-0.378564	0.282396	0.0999988	-0.0422679	0.841624	-0.0905974	-0.204112	-1.80281	0.249957	0.0999999	-0.036774	-0.237618	-0.0780339	0.329453	0.0619739	-0.465817	-0.000919127	2.2673	1.41395	0.0656517	0.0997237	-0.723694	-0.5269	-0.279491	1.88311	1.44124	0.0205341	-0.0811922
